HIERARCHY
ROOT root
{
	OFFSET 0.000000 0.000000 0.000000
	CHANNELS 6 Xposition Yposition Zposition Zrotation Yrotation Xrotation
	JOINT lhip
	{
		OFFSET 0.058581 -0.082280 -0.017664
		CHANNELS 3 Zrotation Yrotation Xrotation
		JOINT lknee
		{
			OFFSET 0.043451 -0.386469 0.008037
			CHANNELS 3 Zrotation Yrotation Xrotation
			JOINT lankle
			{
				OFFSET -0.014790 -0.426874 -0.037428
				CHANNELS 3 Zrotation Yrotation Xrotation
				JOINT ltoe
				{
					OFFSET 0.041054 -0.060286 0.122042
					CHANNELS 3 Zrotation Yrotation Xrotation
					End Site
					{
						OFFSET 0.000000 0.000000 0.000000
					}
				}
			}
		}
	}
	JOINT rhip
	{
		OFFSET -0.060310 -0.090513 -0.013543
		CHANNELS 3 Zrotation Yrotation Xrotation
		JOINT rknee
		{
			OFFSET -0.043257 -0.383688 -0.004843
			CHANNELS 3 Zrotation Yrotation Xrotation
			JOINT rankle
			{
				OFFSET 0.019056 -0.420046 -0.034562
				CHANNELS 3 Zrotation Yrotation Xrotation
				JOINT rtoe
				{
					OFFSET -0.034840 -0.062106 0.130323
					CHANNELS 3 Zrotation Yrotation Xrotation
					End Site
					{
						OFFSET 0.000000 0.000000 0.000000
					}
				}
			}
		}
	}
	JOINT lowerback
	{
		OFFSET 0.004439 0.124404 -0.038385
		CHANNELS 3 Zrotation Yrotation Xrotation
		JOINT upperback
		{
			OFFSET 0.004488 0.137956 0.026820
			CHANNELS 3 Zrotation Yrotation Xrotation
			JOINT chest
			{
				OFFSET -0.002265 0.056032 0.002855
				CHANNELS 3 Zrotation Yrotation Xrotation
				JOINT lowerneck
				{
					OFFSET -0.013390 0.211636 -0.033468
					CHANNELS 3 Zrotation Yrotation Xrotation
					JOINT upperneck
					{
						OFFSET 0.010113 0.088937 0.050410
						CHANNELS 3 Zrotation Yrotation Xrotation
						End Site
						{
							OFFSET 0.000000 0.000000 0.000000
						}
					}
				}
				JOINT lclavicle
				{
					OFFSET 0.071702 0.114000 -0.018898
					CHANNELS 3 Zrotation Yrotation Xrotation
					JOINT lshoulder
					{
						OFFSET 0.122921 0.045205 -0.019046
						CHANNELS 3 Zrotation Yrotation Xrotation
						JOINT lelbow
						{
							OFFSET 0.255332 -0.015649 -0.022946
							CHANNELS 3 Zrotation Yrotation Xrotation
							JOINT lwrist
							{
								OFFSET 0.265709 0.012698 -0.007375
								CHANNELS 3 Zrotation Yrotation Xrotation
								End Site
								{
									OFFSET 0.000000 0.000000 0.000000
								}
							}
						}
					}
				}
				JOINT rclavicle
				{
					OFFSET -0.082954 0.112472 -0.023707
					CHANNELS 3 Zrotation Yrotation Xrotation
					JOINT rshoulder
					{
						OFFSET -0.113228 0.046853 -0.008472
						CHANNELS 3 Zrotation Yrotation Xrotation
						JOINT relbow
						{
							OFFSET -0.260127 -0.014369 -0.031269
							CHANNELS 3 Zrotation Yrotation Xrotation
							JOINT rwrist
							{
								OFFSET -0.269108 0.006794 -0.006027
								CHANNELS 3 Zrotation Yrotation Xrotation
								End Site
								{
									OFFSET 0.000000 0.000000 0.000000
								}
							}
						}
					}
				}
			}
		}
	}
}
MOTION
Frames: 9
Frame Time: 0.033333
-0.162721 -0.854622 0.979320 179.450280 1.314266 89.091369 8.039353 6.276966 2.864312 -2.891323 1.217904 -6.042419 0.473876 9.672597 -4.151893 0.000000 -0.000000 0.000000 -5.339802 -6.865224 2.724563 2.659100 -4.995262 -6.311845 1.999815 -5.880983 -3.358446 0.000000 -0.000000 0.000000 0.321775 2.304482 7.035237 1.094735 -3.063939 3.571905 0.701904 0.412002 -4.884101 -0.872171 3.484646 -1.613381 2.434318 2.090081 7.033252 -27.001016 -5.037370 1.384092 -60.235405 -4.342760 12.881559 9.850807 -16.485241 -11.667543 4.945627 -9.620684 -5.931789 25.316734 7.826999 4.689891 54.691028 3.942616 12.041609 -14.330970 20.788620 -7.673446 5.936579 11.765901 -0.725051 
-0.161927 -0.853655 0.979213 179.877060 1.451089 89.002166 8.183010 6.321972 2.873774 -2.642045 0.702091 -5.829992 0.507634 9.634524 -3.705340 0.000000 -0.000000 0.000000 -5.108686 -6.288770 3.194045 2.654538 -5.318931 -6.680248 2.103784 -6.411569 -3.415341 0.000000 -0.000000 0.000000 0.467455 2.057825 6.918844 1.009621 -3.053611 3.909414 0.623075 0.556092 -4.684654 -0.903652 3.695502 -1.467817 2.533932 2.081704 6.412994 -26.850985 -4.899805 1.213782 -60.172086 -4.361092 12.728220 10.008882 -15.769050 -11.516926 3.007329 -9.512840 -4.917837 25.567711 8.011155 4.345048 54.485510 3.625074 11.656460 -14.349377 20.699850 -7.973366 7.126182 12.147664 0.264950 
-0.161600 -0.853564 0.979149 -179.850018 1.442795 89.105937 8.145840 6.356797 2.672167 -2.620660 0.483140 -5.791954 0.409198 9.777477 -3.669077 0.000000 -0.000000 0.000000 -5.005102 -6.174573 3.127748 2.497471 -5.276388 -6.657504 2.009369 -6.686333 -3.541039 0.000000 -0.000000 0.000000 0.525819 2.030664 6.768072 0.948362 -3.027927 4.162229 0.523374 0.500904 -4.543164 -0.809488 3.620016 -1.411985 2.636836 2.103574 5.720384 -26.933950 -4.762247 1.120166 -60.010340 -4.392968 12.633568 10.214579 -15.362723 -12.035662 2.812615 -9.528304 -4.855090 25.802679 8.122898 4.171323 54.223954 3.550517 11.575358 -14.243770 20.048404 -8.159900 7.163305 12.075425 0.312696 
-0.161158 -0.852962 0.979038 -179.394060 1.454754 89.183719 8.182255 6.331887 2.515412 -2.705982 0.275971 -5.829311 0.034552 9.892210 -4.002074 0.000000 -0.000000 0.000000 -4.880567 -6.235999 3.177697 2.388041 -5.308727 -6.705762 1.982566 -7.020447 -3.572015 0.000000 -0.000000 0.000000 0.574883 2.106379 6.749686 0.958358 -3.034570 4.331519 0.430726 0.406122 -4.381051 -0.711962 3.330709 -1.277377 2.796746 1.979943 4.757343 -27.162504 -4.554702 0.966245 -59.647419 -4.386775 12.511600 10.075751 -14.767708 -12.279890 2.397122 -9.495616 -4.542217 26.010346 8.171220 3.833958 53.908432 3.275539 11.488080 -14.001844 19.157774 -8.344297 7.488831 12.095197 0.548917 
-0.161094 -0.852804 0.979113 -179.180282 1.428580 89.200976 8.157434 6.240054 2.477939 -2.625386 -0.018359 -5.812781 0.065447 9.768065 -3.806485 0.000000 -0.000000 0.000000 -4.897716 -6.322494 3.192558 2.388216 -5.393797 -6.673717 1.929302 -7.087787 -3.572701 0.000000 -0.000000 0.000000 0.543653 2.109817 6.879873 0.959900 -3.060503 4.193774 0.461751 0.348724 -4.351712 -0.733300 3.132347 -1.327283 2.862120 1.982441 4.722338 -27.246910 -4.512474 0.985714 -59.596976 -4.364614 12.449096 10.119112 -14.536015 -12.455559 2.545104 -9.575466 -4.737682 26.039897 8.128969 3.782839 53.845758 3.197181 11.508449 -13.882117 18.897996 -8.230305 7.528169 12.048574 0.600911 
-0.160842 -0.852780 0.979200 -178.748287 1.366102 89.310529 8.072336 6.198987 2.209076 -2.564864 -0.244863 -5.683856 -0.089090 9.687524 -3.824703 0.000000 -0.000000 0.000000 -4.901869 -6.457802 3.137874 2.343908 -5.505010 -6.638495 1.867209 -7.255838 -3.623155 0.000000 -0.000000 0.000000 0.461859 2.091815 6.996653 0.939512 -3.153778 4.045995 0.495294 0.335559 -4.319803 -0.730160 2.961578 -1.461290 2.997081 1.805171 4.652306 -27.262740 -4.533697 1.005620 -59.567933 -4.307520 12.452629 10.085457 -14.233109 -12.518609 2.605154 -9.673317 -4.780103 26.100783 8.107331 3.958470 53.787144 3.105907 11.501806 -13.744782 18.556642 -8.092436 7.353470 12.085618 0.570403 
-0.160815 -0.852220 0.979335 -178.574644 1.348055 89.310757 8.128788 6.262877 2.362942 -2.636011 -0.268720 -5.922740 -0.199192 9.541080 -3.652024 0.000000 -0.000000 0.000000 -4.914047 -6.484815 3.184122 2.326100 -5.554005 -6.593447 1.884432 -7.248625 -3.658849 0.000000 -0.000000 0.000000 0.483513 2.090561 7.168582 0.920009 -3.064860 3.996905 0.505341 0.529127 -4.303313 -0.783173 2.831041 -1.949644 2.996738 1.525430 4.896107 -27.402134 -4.682785 1.025761 -59.447911 -4.266370 12.484082 9.947292 -14.034276 -12.254591 2.730471 -9.508737 -4.723487 26.257697 7.998114 4.467639 53.600376 3.111209 11.252120 -13.923774 18.394428 -8.294419 7.377993 11.947950 0.282954 
-0.160997 -0.851841 0.979565 -178.350330 1.325586 89.366348 8.095581 6.251605 2.450859 -2.572743 -0.511861 -6.171002 -0.284355 9.525510 -3.392041 0.000000 -0.000000 0.000000 -4.926079 -6.540701 3.151480 2.298150 -5.628849 -6.512291 1.888772 -7.363902 -3.672532 0.000000 -0.000000 0.000000 0.565300 2.061004 7.394681 0.841285 -3.026599 3.623811 0.497333 0.432952 -4.294317 -0.832718 2.781819 -1.807185 2.971151 1.742306 4.930798 -27.339953 -4.608307 0.939793 -59.623813 -4.145246 12.633300 9.953558 -13.882576 -12.267685 2.730413 -9.553306 -4.743461 26.114690 8.002233 4.144661 53.818798 2.925356 11.395840 -13.732869 17.767557 -8.216281 7.633165 11.956166 0.471509 
-0.160749 -0.852110 0.979855 -177.945228 1.271307 89.404175 8.078343 6.188156 2.246401 -2.619527 -0.621420 -6.036778 -0.377782 9.443831 -3.441498 0.000000 -0.000000 0.000000 -4.921245 -6.740203 3.077365 2.223987 -5.768116 -6.361541 1.846444 -7.413596 -3.761749 0.000000 -0.000000 0.000000 0.440364 2.122568 7.627899 0.894967 -3.135182 3.494414 0.590696 0.511059 -4.346360 -0.997432 2.744009 -1.785824 3.116676 1.725875 4.832609 -27.470989 -4.868725 1.032433 -59.561140 -4.111270 12.761170 9.912331 -14.108815 -12.284881 2.967986 -9.346682 -4.753776 26.276013 8.064035 4.492345 53.709550 2.826831 11.256915 -13.942011 17.725740 -8.422360 7.624050 11.819774 0.258087 
